HIERARCHY
ROOT hip
{
  OFFSET 0 0 0
  CHANNELS 6 Xposition Yposition Zposition Zrotation Yrotation Xrotation
  JOINT abdomen
  {
    OFFSET 0 20.6881 -0.73152
    CHANNELS 3 Zrotation Xrotation Yrotation
    JOINT chest
    {
      OFFSET 0 11.7043 -0.48768
      CHANNELS 3 Zrotation Xrotation Yrotation
      JOINT neck
      {
        OFFSET 0 22.1894 -2.19456
        CHANNELS 3 Zrotation Xrotation Yrotation
        JOINT head
        {
          OFFSET -0.24384 7.07133 1.2192
          CHANNELS 3 Zrotation Xrotation Yrotation
          JOINT leftEye
          {
            OFFSET 4.14528 8.04674 8.04672
            CHANNELS 3 Zrotation Xrotation Yrotation
            End Site
            {
              OFFSET 1 0 0
            }
          }
          JOINT rightEye
          {
            OFFSET -3.6576 8.04674 8.04672
            CHANNELS 3 Zrotation Xrotation Yrotation
            End Site
            {
              OFFSET 1 0 0
            }
          }
        }
      }
      JOINT rCollar
      {
        OFFSET -2.68224 19.2634 -4.8768
        CHANNELS 3 Zrotation Xrotation Yrotation
        JOINT rShldr
        {
          OFFSET -8.77824 -1.95073 1.46304
          CHANNELS 3 Zrotation Xrotation Yrotation
          JOINT rForeArm
          {
            OFFSET -28.1742 -1.7115 0.48768
            CHANNELS 3 Zrotation Xrotation Yrotation
            JOINT rHand
            {
              OFFSET -22.5879 0.773209 7.07136
              CHANNELS 3 Zrotation Xrotation Yrotation
              JOINT rThumb1
              {
                OFFSET -1.2192 -0.487915 3.41376
                CHANNELS 3 Zrotation Xrotation Yrotation
                JOINT rThumb2
                {
                  OFFSET -3.37035 -0.52449 3.41376
                  CHANNELS 3 Zrotation Xrotation Yrotation
                  End Site
                  {
                    OFFSET -1.78271 -1.18214 1.43049
                  }
                }
              }
              JOINT rIndex1
              {
                OFFSET -7.75947 0.938293 5.60832
                CHANNELS 3 Zrotation Xrotation Yrotation
                JOINT rIndex2
                {
                  OFFSET -2.54057 -0.884171 1.56538
                  CHANNELS 3 Zrotation Xrotation Yrotation
                  End Site
                  {
                    OFFSET -1.62519 -0.234802 1.16502
                  }
                }
              }
              JOINT rMid1
              {
                OFFSET -8.24714 1.18213 3.41376
                CHANNELS 3 Zrotation Xrotation Yrotation
                JOINT rMid2
                {
                  OFFSET -3.10165 -0.590103 1.0647
                  CHANNELS 3 Zrotation Xrotation Yrotation
                  End Site
                  {
                    OFFSET -2.48547 -0.328903 0.83742
                  }
                }
              }
              JOINT rRing1
              {
                OFFSET -8.82822 0.546677 1.51678
                CHANNELS 3 Zrotation Xrotation Yrotation
                JOINT rRing2
                {
                  OFFSET -2.60934 -0.819778 -0.0198488
                  CHANNELS 3 Zrotation Xrotation Yrotation
                  End Site
                  {
                    OFFSET -2.33842 -0.294052 0.168128
                  }
                }
              }
              JOINT rPinky1
              {
                OFFSET -8.27202 -0.0477905 -0.4584
                CHANNELS 3 Zrotation Xrotation Yrotation
                JOINT rPinky2
                {
                  OFFSET -1.82734 -0.647385 -0.700984
                  CHANNELS 3 Zrotation Xrotation Yrotation
                  End Site
                  {
                    OFFSET -1.69225 -0.51767 -0.607171
                  }
                }
              }
            }
          }
        }
      }
      JOINT lCollar
      {
        OFFSET 2.68224 19.2634 -4.8768
        CHANNELS 3 Zrotation Xrotation Yrotation
        JOINT lShldr
        {
          OFFSET 8.77824 -1.95073 1.46304
          CHANNELS 3 Zrotation Xrotation Yrotation
          JOINT lForeArm
          {
            OFFSET 28.1742 -1.7115 0.48768
            CHANNELS 3 Zrotation Xrotation Yrotation
            JOINT lHand
            {
              OFFSET 22.5879 0.773209 7.07136
              CHANNELS 3 Zrotation Xrotation Yrotation
              JOINT lThumb1
              {
                OFFSET 1.2192 -0.487915 3.41376
                CHANNELS 3 Zrotation Xrotation Yrotation
                JOINT lThumb2
                {
                  OFFSET 3.37035 -0.52449 3.41376
                  CHANNELS 3 Zrotation Xrotation Yrotation
                  End Site
                  {
                    OFFSET 1.78271 -1.18214 1.43049
                  }
                }
              }
              JOINT lIndex1
              {
                OFFSET 7.75947 0.938293 5.60832
                CHANNELS 3 Zrotation Xrotation Yrotation
                JOINT lIndex2
                {
                  OFFSET 2.54057 -0.884171 1.56538
                  CHANNELS 3 Zrotation Xrotation Yrotation
                  End Site
                  {
                    OFFSET 1.62519 -0.234802 1.16502
                  }
                }
              }
              JOINT lMid1
              {
                OFFSET 8.24714 1.18213 3.41376
                CHANNELS 3 Zrotation Xrotation Yrotation
                JOINT lMid2
                {
                  OFFSET 3.10165 -0.590103 1.0647
                  CHANNELS 3 Zrotation Xrotation Yrotation
                  End Site
                  {
                    OFFSET 2.48547 -0.328903 0.83742
                  }
                }
              }
              JOINT lRing1
              {
                OFFSET 8.82822 0.546677 1.51678
                CHANNELS 3 Zrotation Xrotation Yrotation
                JOINT lRing2
                {
                  OFFSET 2.60934 -0.819778 -0.0198488
                  CHANNELS 3 Zrotation Xrotation Yrotation
                  End Site
                  {
                    OFFSET 2.33842 -0.294052 0.168128
                  }
                }
              }
              JOINT lPinky1
              {
                OFFSET 8.27202 -0.0477905 -0.4584
                CHANNELS 3 Zrotation Xrotation Yrotation
                JOINT lPinky2
                {
                  OFFSET 1.82734 -0.647385 -0.700984
                  CHANNELS 3 Zrotation Xrotation Yrotation
                  End Site
                  {
                    OFFSET 1.69225 -0.51767 -0.607171
                  }
                }
              }
            }
          }
        }
      }
    }
  }
  JOINT rButtock
  {
    OFFSET -8.77824 4.35084 1.2192
    CHANNELS 3 Zrotation Xrotation Yrotation
    JOINT rThigh
    {
      OFFSET 0 -1.70687 -2.19456
      CHANNELS 3 Zrotation Xrotation Yrotation
      JOINT rShin
      {
        OFFSET 0 -36.8199 0.73152
        CHANNELS 3 Zrotation Xrotation Yrotation
        JOINT rFoot
        {
          OFFSET 0.73152 -45.1104 -5.12064
          CHANNELS 3 Zrotation Xrotation Yrotation
          End Site
          {
            OFFSET -1.1221 -3.69964 12.103
          }
        }
      }
    }
  }
  JOINT lButtock
  {
    OFFSET 8.77824 4.35084 1.2192
    CHANNELS 3 Zrotation Xrotation Yrotation
    JOINT lThigh
    {
      OFFSET 0 -1.70687 -2.19456
      CHANNELS 3 Zrotation Xrotation Yrotation
      JOINT lShin
      {
        OFFSET 0 -36.8199 0.73152
        CHANNELS 3 Zrotation Xrotation Yrotation
        JOINT lFoot
        {
          OFFSET -0.73152 -45.1104 -5.12064
          CHANNELS 3 Zrotation Xrotation Yrotation
          End Site
          {
            OFFSET 1.1221 -3.69964 12.103
          }
        }
      }
    }
  }
}
MOTION
Frames:	4
Frame Time:	0.03333
-0.35749998688697815 70.33290100097656 -0.30000001192092896 -18.17240059375763 68.6324018239975 345.178005695343 0.7620880007743835 14.360100477933884 0.7491519581526518 6.182379797101021 -6.734139695763588 0.51271200645715 -12.173099666833878 22.99459934234619 -16.6744002699852 18.309199959039688 -25.986099243164062 -29.491100013256073 0.0 0.0 0.0 0.0 0.0 0.0 0.0 0.0 0.0 43.538700342178345 -12.933599799871445 2.6126799546182156 -24.234498739242554 -49.075798988342285 102.53100156784058 -16.068800389766693 -70.02249956130981 -22.77279943227768 1.5808154785190709e-09 3.5760194805334322e-09 -2.5937652026186697e-09 2.852118541341042e-09 5.965148375253193e-09 -4.338289727456868e-09 1.5808154785190709e-09 3.5760194805334322e-09 -2.5937652026186697e-09 7.7309102565050125 5.474880114197731 0.41731400415301323 1.5808154785190709e-09 3.5760194805334322e-09 -2.5937652026186697e-09 2.905540131032467 0.9651830233633518 0.102901995414868 1.5808154785190709e-09 3.5760194805334322e-09 -2.5937652026186697e-09 10.27859978377819 0.7318009994924068 0.025912300043273717 1.5808154785190709e-09 3.5760194805334322e-09 -2.5937652026186697e-09 2.221670038998127 -0.733487019315362 -0.2089200052432716 0.0 0.0 0.0 -114.30899977684021 49.6194988489151 44.17549967765808 27.70279884338379 -41.76419913768768 -87.14150011539459 5.043510161340237 -52.37940073013306 10.382399931550026 -1.1382894626876805e-09 9.208633855450898e-11 1.176658770418726e-10 -1.951718786585843e-09 2.1998403099132702e-10 1.3301360013429075e-10 -1.1382894626876805e-09 9.208633855450898e-11 1.176658770418726e-10 -7.7309102565050125 5.474880114197731 -0.41731400415301323 -1.1382894626876805e-09 9.208633855450898e-11 1.176658770418726e-10 -2.905540131032467 0.9651830233633518 -0.102901995414868 -1.1382894626876805e-09 9.208633855450898e-11 1.176658770418726e-10 -10.27859978377819 0.7318009994924068 -0.025912300043273717 -1.1382894626876805e-09 9.208633855450898e-11 1.176658770418726e-10 -2.221670038998127 -0.733487019315362 0.2089200052432716 0.0 0.0 0.0 9.542059823870659 -4.232649877667427 -7.646010294556618 -0.43378398288041353 52.26419985294342 2.2431000508368015 -25.918301045894623 -28.731798827648163 -37.394700944423676 0.0 0.0 0.0 -1.4909400790929794 -63.82079780101776 -12.083300650119781 2.338089980185032 70.79279780387878 -2.293320056051016 -3.6381999403238297 -8.544589877128601 -14.323300570249557
-0.7548999786376953 70.66410064697266 -0.7750000059604645 -15.944800525903702 64.7573983669281 347.42700576782227 1.0427199862897396 14.811300337314606 0.609838985837996 5.6338197737932205 -6.876159980893135 0.4567649820819497 -12.20369964838028 22.664000988006592 -15.827499479055405 18.164599388837814 -26.361900866031647 -27.820199131965637 0.0 0.0 0.0 0.0 0.0 0.0 0.0 0.0 0.0 43.45959931612015 -13.035600185394287 6.395119875669479 -24.44010078907013 -48.7675005197525 101.84900164604187 -16.828300058841705 -70.63479959964752 -23.580900728702545 8.44124770082999e-09 1.4217107491276693e-08 -9.397922440257389e-09 1.4976819784351392e-08 2.360991402383661e-08 -1.55472434926196e-08 8.44124770082999e-09 1.4217107491276693e-08 -9.397922440257389e-09 7.7309102565050125 5.474880114197731 0.41731400415301323 8.44124770082999e-09 1.4217107491276693e-08 -9.397922440257389e-09 2.905540131032467 0.9651830233633518 0.102901995414868 8.44124770082999e-09 1.4217107491276693e-08 -9.397922440257389e-09 10.27859978377819 0.7318009994924068 0.025912300043273717 8.44124770082999e-09 1.4217107491276693e-08 -9.397922440257389e-09 2.221670038998127 -0.733487019315362 -0.2089200052432716 0.0 0.0 0.0 -112.62500166893005 54.33469891548157 39.45369869470596 27.603299617767334 -42.13960111141205 -87.8484982252121 2.007500007748604 -36.83200031518936 5.980180129408836 5.115907697472721e-10 -9.413270163349807e-10 1.3301360013429075e-10 9.131895239988808e-10 -1.5756995708215982e-09 1.944044925039634e-10 5.115907697472721e-10 -9.413270163349807e-10 1.3301360013429075e-10 -7.7309102565050125 5.474880114197731 -0.41731400415301323 5.115907697472721e-10 -9.413270163349807e-10 1.3301360013429075e-10 -2.905540131032467 0.9651830233633518 -0.102901995414868 5.115907697472721e-10 -9.413270163349807e-10 1.3301360013429075e-10 -10.27859978377819 0.7318009994924068 -0.025912300043273717 5.115907697472721e-10 -9.413270163349807e-10 1.3301360013429075e-10 -2.221670038998127 -0.733487019315362 0.2089200052432716 0.0 0.0 0.0 7.433449923992157 -5.41328988969326 -7.3058196902275085 -0.48505499493330717 53.30820143222809 2.2080700658261776 -24.678600132465363 -28.21550041437149 -36.08999937772751 0.0 0.0 0.0 1.8598299846053123 -63.03479790687561 -8.617509752511978 2.2772100381553173 70.37649750709534 -2.205839976668358 -2.9413600265979767 -9.199309721589088 -11.421500444412231
-1.1240999698638916 71.0062026977539 -1.3020000159740448 -14.070999920368195 60.24159908294678 349.5639967918396 1.4278099313378334 15.304600149393082 0.198445999994874 5.240199901163578 -7.127389758825302 0.34294900484383106 -12.151899486780167 22.059400230646133 -14.651800096035004 17.63940006494522 -26.47580087184906 -25.574999749660492 0.0 0.0 0.0 0.0 0.0 0.0 0.0 0.0 0.0 43.206599950790405 -12.568199783563614 11.790699809789658 -25.127199590206146 -47.85399913787842 99.51520085334778 -18.390300571918488 -71.75660133361816 -25.232200026512146 1.0971064057230251e-08 1.761407020239858e-08 -1.1244765119045042e-08 1.9414869711908977e-08 2.9247644306451548e-08 -1.8545165403338615e-08 1.0971064057230251e-08 1.761407020239858e-08 -1.1244765119045042e-08 7.7309102565050125 5.474880114197731 0.41731400415301323 1.0971064057230251e-08 1.761407020239858e-08 -1.1244765119045042e-08 2.905540131032467 0.9651830233633518 0.102901995414868 1.0971064057230251e-08 1.761407020239858e-08 -1.1244765119045042e-08 10.27859978377819 0.7318009994924068 0.025912300043273717 1.0971064057230251e-08 1.761407020239858e-08 -1.1244765119045042e-08 2.221670038998127 -0.733487019315362 -0.2089200052432716 0.0 0.0 0.0 -106.92999601364136 59.57239866256714 30.599399507045746 27.4918994307518 -42.5303989648819 -88.59269857406616 0.30426899436861277 -18.747200667858124 2.7369599416851997 1.2022383089060895e-09 -3.325340003357269e-10 -6.139089236967266e-11 2.1103119252074976e-09 -4.911271389573812e-10 -1.227817847393453e-10 1.2022383089060895e-09 -3.325340003357269e-10 -6.139089236967266e-11 -7.7309102565050125 5.474880114197731 -0.41731400415301323 1.2022383089060895e-09 -3.325340003357269e-10 -6.139089236967266e-11 -2.905540131032467 0.9651830233633518 -0.102901995414868 1.2022383089060895e-09 -3.325340003357269e-10 -6.139089236967266e-11 -10.27859978377819 0.7318009994924068 -0.025912300043273717 1.2022383089060895e-09 -3.325340003357269e-10 -6.139089236967266e-11 -2.221670038998127 -0.733487019315362 0.2089200052432716 0.0 0.0 0.0 5.2966999635100365 -7.117000222206116 -7.117310017347336 -0.5525850132107735 54.56589996814728 2.1733599342405796 -23.218199014663696 -27.569600343704224 -34.5263010263443 0.0 0.0 0.0 5.505430139601231 -62.086599469184875 -4.997530058026314 2.2013700753450394 69.86629843711853 -2.1125400066375732 -2.0031799748539925 -9.480010271072388 -8.093900308012962
-1.4125999808311462 71.44709777832031 -2.044999986886978 -12.63379991054535 55.100297927856445 351.1660051345825 1.9255799800157547 15.838500559329987 -0.4872559988871217 5.000099949538708 -7.487810254096985 0.1710900035686791 -11.986999958753586 21.167899668216705 -13.160399347543716 16.69339969754219 -26.28329873085022 -22.76829868555069 0.0 0.0 0.0 0.0 0.0 0.0 0.0 0.0 0.0 42.60020077228546 -11.469100266695023 18.758400231599808 -26.07680082321167 -46.168402433395386 95.83510279655457 -21.079600006341934 -73.36120069026947 -28.05060088634491 9.170264547719853e-09 1.3756675798504148e-08 -8.134293238981627e-09 1.6163710370165063e-08 2.287833922309801e-08 -1.3332055459613912e-08 9.170264547719853e-09 1.3756675798504148e-08 -8.134293238981627e-09 7.7309102565050125 5.474880114197731 0.41731400415301323 9.170264547719853e-09 1.3756675798504148e-08 -8.134293238981627e-09 2.905540131032467 0.9651830233633518 0.102901995414868 9.170264547719853e-09 1.3756675798504148e-08 -8.134293238981627e-09 10.27859978377819 0.7318009994924068 0.025912300043273717 9.170264547719853e-09 1.3756675798504148e-08 -8.134293238981627e-09 2.221670038998127 -0.733487019315362 -0.2089200052432716 0.0 0.0 0.0 -94.5233952999115 64.37349915504456 14.97510015964508 27.366699278354645 -42.9353991150856 -89.37679946422577 -0.17595599172636867 1.8093000166118145 -0.25947300251573324 9.285372470912989e-10 1.9235812942497432e-09 -4.604316927725449e-10 1.6345325093425345e-09 3.468585418886505e-09 -8.185452315956354e-10 9.285372470912989e-10 1.9235812942497432e-09 -4.604316927725449e-10 -7.7309102565050125 5.474880114197731 -0.41731400415301323 9.285372470912989e-10 1.9235812942497432e-09 -4.604316927725449e-10 -2.905540131032467 0.9651830233633518 -0.102901995414868 9.285372470912989e-10 1.9235812942497432e-09 -4.604316927725449e-10 -10.27859978377819 0.7318009994924068 -0.025912300043273717 9.285372470912989e-10 1.9235812942497432e-09 -4.604316927725449e-10 -2.221670038998127 -0.733487019315362 0.2089200052432716 0.0 0.0 0.0 3.123279847204685 -9.342899769544601 -7.0868998020887375 -0.6357039883732796 56.037397384643555 2.138909976929426 -21.56139984726906 -26.77319884300232 -32.71549880504608 0.0 0.0 0.0 9.3767499178648 -60.95940113067627 -1.2834599800407887 2.1122999489307404 69.26230251789093 -2.01511999592185 -0.8842320274561644 -9.363149777054787 -4.349010139703751
